<svg width="134" height="126" viewBox="0 0 134 126" fill="none" xmlns="http://www.w3.org/2000/svg">
<path d="M36 11.5L32 4.5L19 27L32 49.5L36 43L27.5 27L36 11.5Z" stroke="#197422"/>
<path d="M56.5 7.5L45 27.5L56.5 45.5H78L89 27.5L78 7.5H56.5Z" stroke="#197422"/>
<path d="M82.5 1H52.5L37 27L52.5 53H82.5L97 27L82.5 1Z" stroke="#197422"/>
<path d="M98 10.5L102 5L115 27L102 49.5L98 42.5L107.5 27L98 10.5Z" stroke="#197422"/>
<path d="M52.5 1L55 5.5H79.5L82.5 1M52.5 53L54 48.5H80H80.5L82.5 53" stroke="#197422"/>
<path d="M16.5455 97.2273V94.7273H34V97.2273H26.6818V118H23.8636V97.2273H16.5455ZM36.1733 118V100.545H38.7642V103.182H38.946C39.2642 102.318 39.84 101.617 40.6733 101.08C41.5066 100.542 42.446 100.273 43.4915 100.273C43.6884 100.273 43.9347 100.277 44.2301 100.284C44.5256 100.292 44.7491 100.303 44.9006 100.318V103.045C44.8097 103.023 44.6013 102.989 44.2756 102.943C43.9574 102.89 43.6203 102.864 43.2642 102.864C42.4157 102.864 41.6581 103.042 40.9915 103.398C40.3324 103.746 39.8097 104.231 39.4233 104.852C39.0445 105.466 38.8551 106.167 38.8551 106.955V118H36.1733ZM53.2159 118.409C52.1098 118.409 51.1061 118.201 50.2045 117.784C49.303 117.36 48.5871 116.75 48.0568 115.955C47.5265 115.152 47.2614 114.182 47.2614 113.045C47.2614 112.045 47.4583 111.235 47.8523 110.614C48.2462 109.985 48.7727 109.492 49.4318 109.136C50.0909 108.78 50.8182 108.515 51.6136 108.341C52.4167 108.159 53.2235 108.015 54.0341 107.909C55.0947 107.773 55.9545 107.67 56.6136 107.602C57.2803 107.527 57.7652 107.402 58.0682 107.227C58.3788 107.053 58.5341 106.75 58.5341 106.318V106.227C58.5341 105.106 58.2273 104.235 57.6136 103.614C57.0076 102.992 56.0871 102.682 54.8523 102.682C53.572 102.682 52.5682 102.962 51.8409 103.523C51.1136 104.083 50.6023 104.682 50.3068 105.318L47.7614 104.409C48.2159 103.348 48.822 102.523 49.5795 101.932C50.3447 101.333 51.178 100.917 52.0795 100.682C52.9886 100.439 53.8826 100.318 54.7614 100.318C55.322 100.318 55.9659 100.386 56.6932 100.523C57.428 100.652 58.1364 100.92 58.8182 101.33C59.5076 101.739 60.0795 102.356 60.5341 103.182C60.9886 104.008 61.2159 105.114 61.2159 106.5V118H58.5341V115.636H58.3977C58.2159 116.015 57.9129 116.42 57.4886 116.852C57.0644 117.284 56.5 117.652 55.7955 117.955C55.0909 118.258 54.2311 118.409 53.2159 118.409ZM53.625 116C54.6856 116 55.5795 115.792 56.3068 115.375C57.0417 114.958 57.5947 114.42 57.9659 113.761C58.3447 113.102 58.5341 112.409 58.5341 111.682V109.227C58.4205 109.364 58.1705 109.489 57.7841 109.602C57.4053 109.708 56.9659 109.803 56.4659 109.886C55.9735 109.962 55.4924 110.03 55.0227 110.091C54.5606 110.144 54.1856 110.189 53.8977 110.227C53.2008 110.318 52.5492 110.466 51.9432 110.67C51.3447 110.867 50.8598 111.167 50.4886 111.568C50.125 111.962 49.9432 112.5 49.9432 113.182C49.9432 114.114 50.2879 114.818 50.9773 115.295C51.6742 115.765 52.5568 116 53.625 116ZM72.7017 118.364C71.2472 118.364 69.9631 117.996 68.8494 117.261C67.7358 116.519 66.8646 115.473 66.2358 114.125C65.607 112.769 65.2926 111.167 65.2926 109.318C65.2926 107.485 65.607 105.894 66.2358 104.545C66.8646 103.197 67.7396 102.155 68.8608 101.42C69.982 100.686 71.2775 100.318 72.7472 100.318C73.8835 100.318 74.7813 100.508 75.4403 100.886C76.107 101.258 76.6146 101.682 76.9631 102.159C77.3191 102.629 77.5956 103.015 77.7926 103.318H78.0199V94.7273H80.7017V118H78.1108V115.318H77.7926C77.5956 115.636 77.3153 116.038 76.9517 116.523C76.5881 117 76.0691 117.428 75.3949 117.807C74.7206 118.178 73.8229 118.364 72.7017 118.364ZM73.0653 115.955C74.1411 115.955 75.0502 115.674 75.7926 115.114C76.535 114.545 77.0994 113.761 77.4858 112.761C77.8722 111.754 78.0653 110.591 78.0653 109.273C78.0653 107.97 77.8759 106.83 77.4972 105.852C77.1184 104.867 76.5578 104.102 75.8153 103.557C75.0729 103.004 74.1563 102.727 73.0653 102.727C71.929 102.727 70.982 103.019 70.2244 103.602C69.4744 104.178 68.91 104.962 68.5312 105.955C68.16 106.939 67.9744 108.045 67.9744 109.273C67.9744 110.515 68.1638 111.644 68.5426 112.659C68.929 113.667 69.4972 114.47 70.2472 115.068C71.0047 115.659 71.9441 115.955 73.0653 115.955ZM93.304 118.364C91.6222 118.364 90.1714 117.992 88.9517 117.25C87.7396 116.5 86.804 115.455 86.1449 114.114C85.4934 112.765 85.1676 111.197 85.1676 109.409C85.1676 107.621 85.4934 106.045 86.1449 104.682C86.804 103.311 87.7206 102.242 88.8949 101.477C90.0767 100.705 91.4555 100.318 93.0312 100.318C93.9403 100.318 94.8381 100.47 95.7244 100.773C96.6108 101.076 97.4176 101.568 98.1449 102.25C98.8722 102.924 99.4517 103.818 99.8835 104.932C100.315 106.045 100.531 107.417 100.531 109.045V110.182H87.0767V107.864H97.804C97.804 106.879 97.607 106 97.2131 105.227C96.8267 104.455 96.2737 103.845 95.554 103.398C94.8419 102.951 94.0009 102.727 93.0312 102.727C91.9631 102.727 91.0388 102.992 90.2585 103.523C89.4858 104.045 88.8911 104.727 88.4744 105.568C88.0578 106.409 87.8494 107.311 87.8494 108.273V109.818C87.8494 111.136 88.0767 112.254 88.5312 113.17C88.9934 114.08 89.6335 114.773 90.4517 115.25C91.2699 115.72 92.2206 115.955 93.304 115.955C94.0085 115.955 94.6449 115.856 95.2131 115.659C95.7888 115.455 96.285 115.152 96.7017 114.75C97.1184 114.341 97.4403 113.833 97.6676 113.227L100.259 113.955C99.9858 114.833 99.5275 115.606 98.8835 116.273C98.2396 116.932 97.4441 117.447 96.4972 117.818C95.5502 118.182 94.4858 118.364 93.304 118.364ZM116.974 104.455L114.565 105.136C114.414 104.735 114.19 104.345 113.895 103.966C113.607 103.58 113.213 103.261 112.713 103.011C112.213 102.761 111.573 102.636 110.793 102.636C109.724 102.636 108.834 102.883 108.122 103.375C107.418 103.86 107.065 104.477 107.065 105.227C107.065 105.894 107.308 106.42 107.793 106.807C108.277 107.193 109.035 107.515 110.065 107.773L112.656 108.409C114.217 108.788 115.38 109.367 116.145 110.148C116.91 110.92 117.293 111.917 117.293 113.136C117.293 114.136 117.005 115.03 116.429 115.818C115.861 116.606 115.065 117.227 114.043 117.682C113.02 118.136 111.83 118.364 110.474 118.364C108.694 118.364 107.221 117.977 106.054 117.205C104.887 116.432 104.149 115.303 103.838 113.818L106.384 113.182C106.626 114.121 107.084 114.826 107.759 115.295C108.44 115.765 109.33 116 110.429 116C111.679 116 112.671 115.735 113.406 115.205C114.149 114.667 114.52 114.023 114.52 113.273C114.52 112.667 114.308 112.159 113.884 111.75C113.459 111.333 112.808 111.023 111.929 110.818L109.02 110.136C107.421 109.758 106.247 109.17 105.497 108.375C104.755 107.572 104.384 106.568 104.384 105.364C104.384 104.379 104.66 103.508 105.213 102.75C105.774 101.992 106.535 101.398 107.497 100.966C108.467 100.534 109.565 100.318 110.793 100.318C112.52 100.318 113.876 100.697 114.861 101.455C115.853 102.212 116.558 103.212 116.974 104.455Z" fill="white"/>
<path d="M3.77273 60.7273L10.6818 80.3182H10.9545L17.8636 60.7273H20.8182L12.2727 84H9.36364L0.818182 60.7273H3.77273ZM24.0795 84V66.5455H26.7614V84H24.0795ZM25.4432 63.6364C24.9205 63.6364 24.4697 63.4583 24.0909 63.1023C23.7197 62.7462 23.5341 62.3182 23.5341 61.8182C23.5341 61.3182 23.7197 60.8902 24.0909 60.5341C24.4697 60.178 24.9205 60 25.4432 60C25.9659 60 26.4129 60.178 26.7841 60.5341C27.1629 60.8902 27.3523 61.3182 27.3523 61.8182C27.3523 62.3182 27.1629 62.7462 26.7841 63.1023C26.4129 63.4583 25.9659 63.6364 25.4432 63.6364ZM44.0369 70.4545L41.6278 71.1364C41.4763 70.7348 41.2528 70.3447 40.9574 69.9659C40.6695 69.5795 40.2756 69.2614 39.7756 69.0114C39.2756 68.7614 38.6354 68.6364 37.8551 68.6364C36.7869 68.6364 35.8968 68.8826 35.1847 69.375C34.4801 69.8598 34.1278 70.4773 34.1278 71.2273C34.1278 71.8939 34.3703 72.4205 34.8551 72.8068C35.34 73.1932 36.0975 73.5152 37.1278 73.7727L39.7188 74.4091C41.2794 74.7879 42.4422 75.3674 43.2074 76.1477C43.9725 76.9205 44.3551 77.9167 44.3551 79.1364C44.3551 80.1364 44.0672 81.0303 43.4915 81.8182C42.9233 82.6061 42.1278 83.2273 41.1051 83.6818C40.0824 84.1364 38.893 84.3636 37.5369 84.3636C35.7566 84.3636 34.2831 83.9773 33.1165 83.2045C31.9498 82.4318 31.2112 81.303 30.9006 79.8182L33.446 79.1818C33.6884 80.1212 34.1468 80.8258 34.821 81.2955C35.5028 81.7652 36.393 82 37.4915 82C38.7415 82 39.7339 81.7348 40.4688 81.2045C41.2112 80.6667 41.5824 80.0227 41.5824 79.2727C41.5824 78.6667 41.3703 78.1591 40.946 77.75C40.5218 77.3333 39.8703 77.0227 38.9915 76.8182L36.0824 76.1364C34.4839 75.7576 33.3097 75.1705 32.5597 74.375C31.8172 73.572 31.446 72.5682 31.446 71.3636C31.446 70.3788 31.7225 69.5076 32.2756 68.75C32.8362 67.9924 33.5975 67.3977 34.5597 66.9659C35.5294 66.5341 36.6278 66.3182 37.8551 66.3182C39.5824 66.3182 40.9384 66.697 41.9233 67.4545C42.9157 68.2121 43.6203 69.2121 44.0369 70.4545ZM59.392 76.8636V66.5455H62.0739V84H59.392V81.0455H59.2102C58.8011 81.9318 58.1648 82.6856 57.3011 83.3068C56.4375 83.9205 55.3466 84.2273 54.0284 84.2273C52.9375 84.2273 51.9678 83.9886 51.1193 83.5114C50.2708 83.0265 49.6042 82.2992 49.1193 81.3295C48.6345 80.3523 48.392 79.1212 48.392 77.6364V66.5455H51.0739V77.4545C51.0739 78.7273 51.4299 79.7424 52.142 80.5C52.8617 81.2576 53.7784 81.6364 54.892 81.6364C55.5587 81.6364 56.2367 81.4659 56.9261 81.125C57.6231 80.7841 58.2064 80.2614 58.6761 79.5568C59.1534 78.8523 59.392 77.9545 59.392 76.8636ZM72.1222 84.4091C71.0161 84.4091 70.0123 84.2008 69.1108 83.7841C68.2093 83.3598 67.4934 82.75 66.9631 81.9545C66.4328 81.1515 66.1676 80.1818 66.1676 79.0455C66.1676 78.0455 66.3646 77.2348 66.7585 76.6136C67.1525 75.9848 67.679 75.4924 68.3381 75.1364C68.9972 74.7803 69.7244 74.5152 70.5199 74.3409C71.3229 74.1591 72.1297 74.0152 72.9403 73.9091C74.0009 73.7727 74.8608 73.6705 75.5199 73.6023C76.1866 73.5265 76.6714 73.4015 76.9744 73.2273C77.285 73.053 77.4403 72.75 77.4403 72.3182V72.2273C77.4403 71.1061 77.1335 70.2348 76.5199 69.6136C75.9138 68.9924 74.9934 68.6818 73.7585 68.6818C72.4782 68.6818 71.4744 68.9621 70.7472 69.5227C70.0199 70.0833 69.5085 70.6818 69.2131 71.3182L66.6676 70.4091C67.1222 69.3485 67.7282 68.5227 68.4858 67.9318C69.2509 67.3333 70.0843 66.9167 70.9858 66.6818C71.8949 66.4394 72.7888 66.3182 73.6676 66.3182C74.2282 66.3182 74.8722 66.3864 75.5994 66.5227C76.3343 66.6515 77.0426 66.9205 77.7244 67.3295C78.4138 67.7386 78.9858 68.3561 79.4403 69.1818C79.8949 70.0076 80.1222 71.1136 80.1222 72.5V84H77.4403V81.6364H77.304C77.1222 82.0152 76.8191 82.4205 76.3949 82.8523C75.9706 83.2841 75.4063 83.6515 74.7017 83.9545C73.9972 84.2576 73.1373 84.4091 72.1222 84.4091ZM72.5312 82C73.5919 82 74.4858 81.7917 75.2131 81.375C75.9479 80.9583 76.5009 80.4205 76.8722 79.7614C77.2509 79.1023 77.4403 78.4091 77.4403 77.6818V75.2273C77.3267 75.3636 77.0767 75.4886 76.6903 75.6023C76.3116 75.7083 75.8722 75.803 75.3722 75.8864C74.8797 75.9621 74.3987 76.0303 73.929 76.0909C73.4669 76.1439 73.0919 76.1894 72.804 76.2273C72.107 76.3182 71.4555 76.4659 70.8494 76.6705C70.2509 76.8674 69.7661 77.1667 69.3949 77.5682C69.0313 77.9621 68.8494 78.5 68.8494 79.1818C68.8494 80.1136 69.1941 80.8182 69.8835 81.2955C70.5805 81.7652 71.4631 82 72.5312 82ZM87.6989 60.7273V84H85.017V60.7273H87.6989ZM92.6108 84V66.5455H95.2926V84H92.6108ZM93.9744 63.6364C93.4517 63.6364 93.0009 63.4583 92.6222 63.1023C92.2509 62.7462 92.0653 62.3182 92.0653 61.8182C92.0653 61.3182 92.2509 60.8902 92.6222 60.5341C93.0009 60.178 93.4517 60 93.9744 60C94.4972 60 94.9441 60.178 95.3153 60.5341C95.6941 60.8902 95.8835 61.3182 95.8835 61.8182C95.8835 62.3182 95.6941 62.7462 95.3153 63.1023C94.9441 63.4583 94.4972 63.6364 93.9744 63.6364ZM99.7045 84V81.9545L109.614 69.2273V69.0455H100.023V66.5455H113.068V68.6818L103.432 81.3182V81.5H113.386V84H99.7045ZM124.335 84.3636C122.653 84.3636 121.203 83.9924 119.983 83.25C118.771 82.5 117.835 81.4545 117.176 80.1136C116.525 78.7652 116.199 77.197 116.199 75.4091C116.199 73.6212 116.525 72.0455 117.176 70.6818C117.835 69.3106 118.752 68.2424 119.926 67.4773C121.108 66.7045 122.487 66.3182 124.062 66.3182C124.972 66.3182 125.869 66.4697 126.756 66.7727C127.642 67.0758 128.449 67.5682 129.176 68.25C129.903 68.9242 130.483 69.8182 130.915 70.9318C131.347 72.0455 131.562 73.4167 131.562 75.0455V76.1818H118.108V73.8636H128.835C128.835 72.8788 128.638 72 128.244 71.2273C127.858 70.4545 127.305 69.8447 126.585 69.3977C125.873 68.9508 125.032 68.7273 124.062 68.7273C122.994 68.7273 122.07 68.9924 121.29 69.5227C120.517 70.0455 119.922 70.7273 119.506 71.5682C119.089 72.4091 118.881 73.3106 118.881 74.2727V75.8182C118.881 77.1364 119.108 78.2538 119.562 79.1705C120.025 80.0795 120.665 80.7727 121.483 81.25C122.301 81.7197 123.252 81.9545 124.335 81.9545C125.04 81.9545 125.676 81.8561 126.244 81.6591C126.82 81.4545 127.316 81.1515 127.733 80.75C128.15 80.3409 128.472 79.8333 128.699 79.2273L131.29 79.9545C131.017 80.8333 130.559 81.6061 129.915 82.2727C129.271 82.9318 128.475 83.447 127.528 83.8182C126.581 84.1818 125.517 84.3636 124.335 84.3636Z" fill="white"/>
</svg>
