<svg width="138" height="146" viewBox="0 0 138 146" fill="none" xmlns="http://www.w3.org/2000/svg">
<path d="M32.2537 13.3867L27.4478 5.12891L11.8284 31.6719L27.4478 58.2148L32.2537 50.5469L22.041 31.6719L32.2537 13.3867Z" fill="#197422" stroke="#197422"/>
<path d="M56.8843 8.66797L43.0672 32.2617L56.8843 53.4961H82.7164L95.9328 32.2617L82.7164 8.66797H56.8843Z" stroke="#197422"/>
<path d="M88.1231 1H52.0784L33.4552 31.6719L52.0784 62.3438H88.1231L105.545 31.6719L88.1231 1Z" stroke="#197422"/>
<path d="M106.746 12.207L111.552 5.71875L127.172 31.6719L111.552 58.2148L106.746 49.957L118.16 31.6719L106.746 12.207Z" stroke="#197422"/>
<path d="M52.0784 1L55.0821 6.30859H84.5187L88.1231 1M52.0784 62.3438L53.8806 57.0352H85.1194H85.7201L88.1231 62.3438" stroke="#197422"/>
<path d="M17.5455 118.227V115.727H35V118.227H27.6818V139H24.8636V118.227H17.5455ZM37.1733 139V121.545H39.7642V124.182H39.946C40.2642 123.318 40.84 122.617 41.6733 122.08C42.5066 121.542 43.446 121.273 44.4915 121.273C44.6884 121.273 44.9347 121.277 45.2301 121.284C45.5256 121.292 45.7491 121.303 45.9006 121.318V124.045C45.8097 124.023 45.6013 123.989 45.2756 123.943C44.9574 123.89 44.6203 123.864 44.2642 123.864C43.4157 123.864 42.6581 124.042 41.9915 124.398C41.3324 124.746 40.8097 125.231 40.4233 125.852C40.0445 126.466 39.8551 127.167 39.8551 127.955V139H37.1733ZM54.2159 139.409C53.1098 139.409 52.1061 139.201 51.2045 138.784C50.303 138.36 49.5871 137.75 49.0568 136.955C48.5265 136.152 48.2614 135.182 48.2614 134.045C48.2614 133.045 48.4583 132.235 48.8523 131.614C49.2462 130.985 49.7727 130.492 50.4318 130.136C51.0909 129.78 51.8182 129.515 52.6136 129.341C53.4167 129.159 54.2235 129.015 55.0341 128.909C56.0947 128.773 56.9545 128.67 57.6136 128.602C58.2803 128.527 58.7652 128.402 59.0682 128.227C59.3788 128.053 59.5341 127.75 59.5341 127.318V127.227C59.5341 126.106 59.2273 125.235 58.6136 124.614C58.0076 123.992 57.0871 123.682 55.8523 123.682C54.572 123.682 53.5682 123.962 52.8409 124.523C52.1136 125.083 51.6023 125.682 51.3068 126.318L48.7614 125.409C49.2159 124.348 49.822 123.523 50.5795 122.932C51.3447 122.333 52.178 121.917 53.0795 121.682C53.9886 121.439 54.8826 121.318 55.7614 121.318C56.322 121.318 56.9659 121.386 57.6932 121.523C58.428 121.652 59.1364 121.92 59.8182 122.33C60.5076 122.739 61.0795 123.356 61.5341 124.182C61.9886 125.008 62.2159 126.114 62.2159 127.5V139H59.5341V136.636H59.3977C59.2159 137.015 58.9129 137.42 58.4886 137.852C58.0644 138.284 57.5 138.652 56.7955 138.955C56.0909 139.258 55.2311 139.409 54.2159 139.409ZM54.625 137C55.6856 137 56.5795 136.792 57.3068 136.375C58.0417 135.958 58.5947 135.42 58.9659 134.761C59.3447 134.102 59.5341 133.409 59.5341 132.682V130.227C59.4205 130.364 59.1705 130.489 58.7841 130.602C58.4053 130.708 57.9659 130.803 57.4659 130.886C56.9735 130.962 56.4924 131.03 56.0227 131.091C55.5606 131.144 55.1856 131.189 54.8977 131.227C54.2008 131.318 53.5492 131.466 52.9432 131.67C52.3447 131.867 51.8598 132.167 51.4886 132.568C51.125 132.962 50.9432 133.5 50.9432 134.182C50.9432 135.114 51.2879 135.818 51.9773 136.295C52.6742 136.765 53.5568 137 54.625 137ZM73.7017 139.364C72.2472 139.364 70.9631 138.996 69.8494 138.261C68.7358 137.519 67.8646 136.473 67.2358 135.125C66.607 133.769 66.2926 132.167 66.2926 130.318C66.2926 128.485 66.607 126.894 67.2358 125.545C67.8646 124.197 68.7396 123.155 69.8608 122.42C70.982 121.686 72.2775 121.318 73.7472 121.318C74.8835 121.318 75.7813 121.508 76.4403 121.886C77.107 122.258 77.6146 122.682 77.9631 123.159C78.3191 123.629 78.5956 124.015 78.7926 124.318H79.0199V115.727H81.7017V139H79.1108V136.318H78.7926C78.5956 136.636 78.3153 137.038 77.9517 137.523C77.5881 138 77.0691 138.428 76.3949 138.807C75.7206 139.178 74.8229 139.364 73.7017 139.364ZM74.0653 136.955C75.1411 136.955 76.0502 136.674 76.7926 136.114C77.535 135.545 78.0994 134.761 78.4858 133.761C78.8722 132.754 79.0653 131.591 79.0653 130.273C79.0653 128.97 78.8759 127.83 78.4972 126.852C78.1184 125.867 77.5578 125.102 76.8153 124.557C76.0729 124.004 75.1563 123.727 74.0653 123.727C72.929 123.727 71.982 124.019 71.2244 124.602C70.4744 125.178 69.91 125.962 69.5312 126.955C69.16 127.939 68.9744 129.045 68.9744 130.273C68.9744 131.515 69.1638 132.644 69.5426 133.659C69.929 134.667 70.4972 135.47 71.2472 136.068C72.0047 136.659 72.9441 136.955 74.0653 136.955ZM94.304 139.364C92.6222 139.364 91.1714 138.992 89.9517 138.25C88.7396 137.5 87.804 136.455 87.1449 135.114C86.4934 133.765 86.1676 132.197 86.1676 130.409C86.1676 128.621 86.4934 127.045 87.1449 125.682C87.804 124.311 88.7206 123.242 89.8949 122.477C91.0767 121.705 92.4555 121.318 94.0312 121.318C94.9403 121.318 95.8381 121.47 96.7244 121.773C97.6108 122.076 98.4176 122.568 99.1449 123.25C99.8722 123.924 100.452 124.818 100.884 125.932C101.315 127.045 101.531 128.417 101.531 130.045V131.182H88.0767V128.864H98.804C98.804 127.879 98.607 127 98.2131 126.227C97.8267 125.455 97.2737 124.845 96.554 124.398C95.8419 123.951 95.0009 123.727 94.0312 123.727C92.9631 123.727 92.0388 123.992 91.2585 124.523C90.4858 125.045 89.8911 125.727 89.4744 126.568C89.0578 127.409 88.8494 128.311 88.8494 129.273V130.818C88.8494 132.136 89.0767 133.254 89.5312 134.17C89.9934 135.08 90.6335 135.773 91.4517 136.25C92.2699 136.72 93.2206 136.955 94.304 136.955C95.0085 136.955 95.6449 136.856 96.2131 136.659C96.7888 136.455 97.285 136.152 97.7017 135.75C98.1184 135.341 98.4403 134.833 98.6676 134.227L101.259 134.955C100.986 135.833 100.527 136.606 99.8835 137.273C99.2396 137.932 98.4441 138.447 97.4972 138.818C96.5502 139.182 95.4858 139.364 94.304 139.364ZM117.974 125.455L115.565 126.136C115.414 125.735 115.19 125.345 114.895 124.966C114.607 124.58 114.213 124.261 113.713 124.011C113.213 123.761 112.573 123.636 111.793 123.636C110.724 123.636 109.834 123.883 109.122 124.375C108.418 124.86 108.065 125.477 108.065 126.227C108.065 126.894 108.308 127.42 108.793 127.807C109.277 128.193 110.035 128.515 111.065 128.773L113.656 129.409C115.217 129.788 116.38 130.367 117.145 131.148C117.91 131.92 118.293 132.917 118.293 134.136C118.293 135.136 118.005 136.03 117.429 136.818C116.861 137.606 116.065 138.227 115.043 138.682C114.02 139.136 112.83 139.364 111.474 139.364C109.694 139.364 108.221 138.977 107.054 138.205C105.887 137.432 105.149 136.303 104.838 134.818L107.384 134.182C107.626 135.121 108.084 135.826 108.759 136.295C109.44 136.765 110.33 137 111.429 137C112.679 137 113.671 136.735 114.406 136.205C115.149 135.667 115.52 135.023 115.52 134.273C115.52 133.667 115.308 133.159 114.884 132.75C114.459 132.333 113.808 132.023 112.929 131.818L110.02 131.136C108.421 130.758 107.247 130.17 106.497 129.375C105.755 128.572 105.384 127.568 105.384 126.364C105.384 125.379 105.66 124.508 106.213 123.75C106.774 122.992 107.535 122.398 108.497 121.966C109.467 121.534 110.565 121.318 111.793 121.318C113.52 121.318 114.876 121.697 115.861 122.455C116.853 123.212 117.558 124.212 117.974 125.455Z" fill="white"/>
<path d="M3.77273 73.7273L10.6818 93.3182H10.9545L17.8636 73.7273H20.8182L12.2727 97H9.36364L0.818182 73.7273H3.77273ZM24.0795 97V79.5455H26.7614V97H24.0795ZM25.4432 76.6364C24.9205 76.6364 24.4697 76.4583 24.0909 76.1023C23.7197 75.7462 23.5341 75.3182 23.5341 74.8182C23.5341 74.3182 23.7197 73.8902 24.0909 73.5341C24.4697 73.178 24.9205 73 25.4432 73C25.9659 73 26.4129 73.178 26.7841 73.5341C27.1629 73.8902 27.3523 74.3182 27.3523 74.8182C27.3523 75.3182 27.1629 75.7462 26.7841 76.1023C26.4129 76.4583 25.9659 76.6364 25.4432 76.6364ZM44.0369 83.4545L41.6278 84.1364C41.4763 83.7348 41.2528 83.3447 40.9574 82.9659C40.6695 82.5795 40.2756 82.2614 39.7756 82.0114C39.2756 81.7614 38.6354 81.6364 37.8551 81.6364C36.7869 81.6364 35.8968 81.8826 35.1847 82.375C34.4801 82.8598 34.1278 83.4773 34.1278 84.2273C34.1278 84.8939 34.3703 85.4205 34.8551 85.8068C35.34 86.1932 36.0975 86.5152 37.1278 86.7727L39.7188 87.4091C41.2794 87.7879 42.4422 88.3674 43.2074 89.1477C43.9725 89.9205 44.3551 90.9167 44.3551 92.1364C44.3551 93.1364 44.0672 94.0303 43.4915 94.8182C42.9233 95.6061 42.1278 96.2273 41.1051 96.6818C40.0824 97.1364 38.893 97.3636 37.5369 97.3636C35.7566 97.3636 34.2831 96.9773 33.1165 96.2045C31.9498 95.4318 31.2112 94.303 30.9006 92.8182L33.446 92.1818C33.6884 93.1212 34.1468 93.8258 34.821 94.2955C35.5028 94.7652 36.393 95 37.4915 95C38.7415 95 39.7339 94.7348 40.4688 94.2045C41.2112 93.6667 41.5824 93.0227 41.5824 92.2727C41.5824 91.6667 41.3703 91.1591 40.946 90.75C40.5218 90.3333 39.8703 90.0227 38.9915 89.8182L36.0824 89.1364C34.4839 88.7576 33.3097 88.1705 32.5597 87.375C31.8172 86.572 31.446 85.5682 31.446 84.3636C31.446 83.3788 31.7225 82.5076 32.2756 81.75C32.8362 80.9924 33.5975 80.3977 34.5597 79.9659C35.5294 79.5341 36.6278 79.3182 37.8551 79.3182C39.5824 79.3182 40.9384 79.697 41.9233 80.4545C42.9157 81.2121 43.6203 82.2121 44.0369 83.4545ZM59.392 89.8636V79.5455H62.0739V97H59.392V94.0455H59.2102C58.8011 94.9318 58.1648 95.6856 57.3011 96.3068C56.4375 96.9205 55.3466 97.2273 54.0284 97.2273C52.9375 97.2273 51.9678 96.9886 51.1193 96.5114C50.2708 96.0265 49.6042 95.2992 49.1193 94.3295C48.6345 93.3523 48.392 92.1212 48.392 90.6364V79.5455H51.0739V90.4545C51.0739 91.7273 51.4299 92.7424 52.142 93.5C52.8617 94.2576 53.7784 94.6364 54.892 94.6364C55.5587 94.6364 56.2367 94.4659 56.9261 94.125C57.6231 93.7841 58.2064 93.2614 58.6761 92.5568C59.1534 91.8523 59.392 90.9545 59.392 89.8636ZM72.1222 97.4091C71.0161 97.4091 70.0123 97.2008 69.1108 96.7841C68.2093 96.3598 67.4934 95.75 66.9631 94.9545C66.4328 94.1515 66.1676 93.1818 66.1676 92.0455C66.1676 91.0455 66.3646 90.2348 66.7585 89.6136C67.1525 88.9848 67.679 88.4924 68.3381 88.1364C68.9972 87.7803 69.7244 87.5152 70.5199 87.3409C71.3229 87.1591 72.1297 87.0152 72.9403 86.9091C74.0009 86.7727 74.8608 86.6705 75.5199 86.6023C76.1866 86.5265 76.6714 86.4015 76.9744 86.2273C77.285 86.053 77.4403 85.75 77.4403 85.3182V85.2273C77.4403 84.1061 77.1335 83.2348 76.5199 82.6136C75.9138 81.9924 74.9934 81.6818 73.7585 81.6818C72.4782 81.6818 71.4744 81.9621 70.7472 82.5227C70.0199 83.0833 69.5085 83.6818 69.2131 84.3182L66.6676 83.4091C67.1222 82.3485 67.7282 81.5227 68.4858 80.9318C69.2509 80.3333 70.0843 79.9167 70.9858 79.6818C71.8949 79.4394 72.7888 79.3182 73.6676 79.3182C74.2282 79.3182 74.8722 79.3864 75.5994 79.5227C76.3343 79.6515 77.0426 79.9205 77.7244 80.3295C78.4138 80.7386 78.9858 81.3561 79.4403 82.1818C79.8949 83.0076 80.1222 84.1136 80.1222 85.5V97H77.4403V94.6364H77.304C77.1222 95.0152 76.8191 95.4205 76.3949 95.8523C75.9706 96.2841 75.4063 96.6515 74.7017 96.9545C73.9972 97.2576 73.1373 97.4091 72.1222 97.4091ZM72.5312 95C73.5919 95 74.4858 94.7917 75.2131 94.375C75.9479 93.9583 76.5009 93.4205 76.8722 92.7614C77.2509 92.1023 77.4403 91.4091 77.4403 90.6818V88.2273C77.3267 88.3636 77.0767 88.4886 76.6903 88.6023C76.3116 88.7083 75.8722 88.803 75.3722 88.8864C74.8797 88.9621 74.3987 89.0303 73.929 89.0909C73.4669 89.1439 73.0919 89.1894 72.804 89.2273C72.107 89.3182 71.4555 89.4659 70.8494 89.6705C70.2509 89.8674 69.7661 90.1667 69.3949 90.5682C69.0313 90.9621 68.8494 91.5 68.8494 92.1818C68.8494 93.1136 69.1941 93.8182 69.8835 94.2955C70.5805 94.7652 71.4631 95 72.5312 95ZM87.6989 73.7273V97H85.017V73.7273H87.6989ZM92.6108 97V79.5455H95.2926V97H92.6108ZM93.9744 76.6364C93.4517 76.6364 93.0009 76.4583 92.6222 76.1023C92.2509 75.7462 92.0653 75.3182 92.0653 74.8182C92.0653 74.3182 92.2509 73.8902 92.6222 73.5341C93.0009 73.178 93.4517 73 93.9744 73C94.4972 73 94.9441 73.178 95.3153 73.5341C95.6941 73.8902 95.8835 74.3182 95.8835 74.8182C95.8835 75.3182 95.6941 75.7462 95.3153 76.1023C94.9441 76.4583 94.4972 76.6364 93.9744 76.6364ZM99.7045 97V94.9545L109.614 82.2273V82.0455H100.023V79.5455H113.068V81.6818L103.432 94.3182V94.5H113.386V97H99.7045ZM124.335 97.3636C122.653 97.3636 121.203 96.9924 119.983 96.25C118.771 95.5 117.835 94.4545 117.176 93.1136C116.525 91.7652 116.199 90.197 116.199 88.4091C116.199 86.6212 116.525 85.0455 117.176 83.6818C117.835 82.3106 118.752 81.2424 119.926 80.4773C121.108 79.7045 122.487 79.3182 124.062 79.3182C124.972 79.3182 125.869 79.4697 126.756 79.7727C127.642 80.0758 128.449 80.5682 129.176 81.25C129.903 81.9242 130.483 82.8182 130.915 83.9318C131.347 85.0455 131.562 86.4167 131.562 88.0455V89.1818H118.108V86.8636H128.835C128.835 85.8788 128.638 85 128.244 84.2273C127.858 83.4545 127.305 82.8447 126.585 82.3977C125.873 81.9508 125.032 81.7273 124.062 81.7273C122.994 81.7273 122.07 81.9924 121.29 82.5227C120.517 83.0455 119.922 83.7273 119.506 84.5682C119.089 85.4091 118.881 86.3106 118.881 87.2727V88.8182C118.881 90.1364 119.108 91.2538 119.562 92.1705C120.025 93.0795 120.665 93.7727 121.483 94.25C122.301 94.7197 123.252 94.9545 124.335 94.9545C125.04 94.9545 125.676 94.8561 126.244 94.6591C126.82 94.4545 127.316 94.1515 127.733 93.75C128.15 93.3409 128.472 92.8333 128.699 92.2273L131.29 92.9545C131.017 93.8333 130.559 94.6061 129.915 95.2727C129.271 95.9318 128.475 96.447 127.528 96.8182C126.581 97.1818 125.517 97.3636 124.335 97.3636Z" fill="white"/>
<path fill-rule="evenodd" clip-rule="evenodd" d="M52.0784 1.58984L55.0821 6.30859H84.5187L88.1231 1.58984L105.545 31.6719L88.1231 61.7539L85.7201 57.0352H53.8806L52.0784 61.7539L33.4552 31.6719L52.0784 1.58984ZM82.7164 8.66797H56.8843L43.0672 32.2617L56.8843 53.4961H82.7164L95.9328 32.2617L82.7164 8.66797Z" fill="#197422"/>
<path d="M106.746 12.207L111.552 5.71875L127.172 31.6719L111.552 58.2148L106.746 49.957L118.16 31.6719L106.746 12.207Z" fill="#197422"/>
<path fill-rule="evenodd" clip-rule="evenodd" d="M52.0784 1.58984L55.0821 6.30859H84.5187L88.1231 1.58984L105.545 31.6719L88.1231 61.7539L85.7201 57.0352H53.8806L52.0784 61.7539L33.4552 31.6719L52.0784 1.58984ZM82.7164 8.66797H56.8843L43.0672 32.2617L56.8843 53.4961H82.7164L95.9328 32.2617L82.7164 8.66797Z" stroke="#197422"/>
<path d="M106.746 12.207L111.552 5.71875L127.172 31.6719L111.552 58.2148L106.746 49.957L118.16 31.6719L106.746 12.207Z" stroke="#197422"/>
</svg>
